<svg width="80.000000" height="80.000000" viewBox="0 0 80 80" fill="none" xmlns="http://www.w3.org/2000/svg" xmlns:xlink="http://www.w3.org/1999/xlink">
	<defs/>
	<rect width="80.000000" height="80.000000" fill="#FFFFFF" fill-opacity="0"/>
	<path d="M10 14L70 14C72.2 14 74 15.79 74 18L74 63C74 65.2 72.2 67 70 67L10 67C7.79 67 6 65.2 6 63L6 18C6 15.79 7.79 14 10 14Z" fill="#FFFFFF" fill-opacity="1.000000" fill-rule="evenodd"/>
	<path d="M10 14L70 14C72.2 14 74 15.79 74 18L74 63C74 65.2 72.2 67 70 67L10 67C7.79 67 6 65.2 6 63L6 18C6 15.79 7.79 14 10 14ZM10 15L70 15C71 15 71.75 15.25 72.25 15.75C72.75 16.25 73 17 73 18L73 63C73 64 72.75 64.75 72.25 65.25C71.75 65.75 71 66 70 66L10 66C9 66 8.25 65.75 7.75 65.25C7.25 64.75 7 64 7 63L7 18C7 17 7.25 16.25 7.75 15.75C8.25 15.25 9 15 10 15Z" fill="#808080" fill-opacity="1.000000" fill-rule="evenodd"/>
	<path d="M6 47.27L24.56 29.06C25.73 27.91 27.6 27.91 28.77 29.06L44.52 44.51C45.69 45.66 47.56 45.66 48.72 44.51L56.64 36.75C57.8 35.6 59.67 35.6 60.84 36.75L74 49.67L74 62C74 64.76 71.76 67 69 67L11 67C8.23 67 6 64.76 6 62L6 47.27Z" fill="#F0F0F0" fill-opacity="1.000000" fill-rule="evenodd"/>
	<path d="" fill="#808080" fill-opacity="0" fill-rule="evenodd"/>
	<ellipse cx="40.000000" cy="40.000000" rx="8.000001" ry="8.000002" fill="#1476FF" fill-opacity="1.000000"/>
	<path d="M40 35.5C40.27 35.5 40.5 35.72 40.5 36L40.5 39.49L44 39.5C44.27 39.5 44.5 39.72 44.5 40C44.5 40.27 44.27 40.5 44 40.5L40.5 40.5L40.5 44C40.5 44.27 40.27 44.5 40 44.5C39.72 44.5 39.5 44.27 39.5 44L39.5 40.5L36 40.5C35.72 40.5 35.5 40.27 35.5 40C35.5 39.72 35.72 39.5 36 39.5L39.5 39.5L39.5 36C39.5 35.72 39.72 35.5 40 35.5Z" fill="#FFFFFF" fill-opacity="1.000000" fill-rule="evenodd"/>
	<path d="M10 14L70 14C72.2 14 74 15.79 74 18L74 63C74 65.2 72.2 67 70 67L10 67C7.79 67 6 65.2 6 63L6 18C6 15.79 7.79 14 10 14Z" fill="#FFFFFF" fill-opacity="0" fill-rule="evenodd"/>
	<path d="M10 14L70 14C72.2 14 74 15.79 74 18L74 63C74 65.2 72.2 67 70 67L10 67C7.79 67 6 65.2 6 63L6 18C6 15.79 7.79 14 10 14ZM10 15L70 15C71 15 71.75 15.25 72.25 15.75C72.75 16.25 73 17 73 18L73 63C73 64 72.75 64.75 72.25 65.25C71.75 65.75 71 66 70 66L10 66C9 66 8.25 65.75 7.75 65.25C7.25 64.75 7 64 7 63L7 18C7 17 7.25 16.25 7.75 15.75C8.25 15.25 9 15 10 15Z" fill="#808080" fill-opacity="1.000000" fill-rule="evenodd"/>
	<circle cx="58.000000" cy="27.000000" r="5.000000" fill="#DBDBDB" fill-opacity="1.000000"/>
</svg>
