<svg width="20.000000" height="20.000000" viewBox="0 0 20 20" fill="none" xmlns="http://www.w3.org/2000/svg" xmlns:xlink="http://www.w3.org/1999/xlink">
	<defs/>
	<mask id="mask596_184735" mask-type="alpha" maskUnits="userSpaceOnUse" x="0.000000" y="0.000000" width="20.000000" height="20.000000">
		<rect id="编辑-edit" width="20.000000" height="20.000000" fill="#000000" fill-opacity="1.000000"/>
	</mask>
	<g mask="url(#mask596_184735)">
		<path id="形状结合" d="M12.38 2.91C13.6 1.68 15.58 1.68 16.79 2.91L16.95 3.06C18.02 4.28 17.97 6.16 16.79 7.32L7.18 16.94C6.83 17.29 6.36 17.5 5.86 17.5L3.09 17.5C2.61 17.5 2.22 17.1 2.22 16.62L2.22 13.85C2.22 13.35 2.41 12.87 2.77 12.52L12.38 2.91ZM16.61 16.21C16.96 16.21 17.23 16.5 17.23 16.83C17.23 17.18 16.96 17.46 16.61 17.46L10.36 17.46C10.01 17.46 9.73 17.18 9.73 16.83C9.73 16.5 10.01 16.21 10.36 16.21L16.61 16.21ZM10.97 6.08L3.64 13.41C3.53 13.52 3.47 13.68 3.47 13.85L3.47 16.25L5.86 16.25C6 16.25 6.12 16.2 6.22 16.12L13.63 8.73L10.97 6.08ZM15.78 3.67C15.05 3.06 13.96 3.11 13.26 3.79L11.86 5.19L14.51 7.85L15.92 6.44C16.61 5.75 16.65 4.63 16.02 3.89L15.78 3.67Z" fill="#FFFFFF" fill-opacity="1.000000" fill-rule="nonzero"/>
	</g>
</svg>
