<svg width="1em" height="1em" viewBox="0 0 20 20" fill="none" xmlns="http://www.w3.org/2000/svg"
    xmlns:xlink="http://www.w3.org/1999/xlink">
    <path
        d="M0.84 7.95C0.69 8.61 0.62 9.3 0.62 10C0.62 10.69 0.69 11.38 0.84 12.04C0.96 12.59 1.14 13.12 1.36 13.64C1.58 14.17 1.85 14.67 2.16 15.14C2.51 15.67 2.91 16.17 3.37 16.62C3.82 17.08 4.32 17.48 4.85 17.83C5.32 18.14 5.82 18.41 6.35 18.63C6.87 18.85 7.4 19.03 7.95 19.15C8.61 19.3 9.3 19.37 10 19.37C10.69 19.37 11.38 19.3 12.04 19.15C12.59 19.03 13.12 18.85 13.64 18.63C14.17 18.41 14.67 18.14 15.14 17.83C15.67 17.48 16.17 17.08 16.62 16.62C17.08 16.17 17.48 15.67 17.83 15.14C18.14 14.67 18.41 14.17 18.63 13.64C18.85 13.12 19.03 12.59 19.15 12.04C19.3 11.38 19.37 10.69 19.37 10C19.37 9.3 19.3 8.61 19.15 7.95C19.03 7.4 18.85 6.87 18.63 6.35C18.41 5.82 18.14 5.32 17.83 4.85C17.48 4.32 17.08 3.82 16.62 3.37C16.17 2.91 15.67 2.51 15.14 2.16C14.67 1.85 14.17 1.58 13.64 1.36C13.12 1.14 12.59 0.96 12.04 0.84C11.38 0.69 10.69 0.62 10 0.62C9.3 0.62 8.61 0.69 7.95 0.84C7.4 0.96 6.87 1.14 6.35 1.36C5.82 1.58 5.32 1.85 4.85 2.16C4.32 2.51 3.82 2.91 3.37 3.37C2.91 3.82 2.51 4.32 2.16 4.85C1.85 5.32 1.58 5.82 1.36 6.35C1.14 6.87 0.96 7.4 0.84 7.95ZM2.07 11.79C1.94 11.21 1.87 10.61 1.87 10C1.87 9.38 1.94 8.78 2.07 8.2C2.17 7.73 2.32 7.28 2.51 6.83C2.7 6.38 2.93 5.95 3.19 5.55C3.5 5.08 3.85 4.65 4.25 4.25C4.65 3.85 5.08 3.5 5.55 3.19C5.95 2.93 6.38 2.7 6.83 2.51C7.28 2.32 7.73 2.17 8.2 2.07C8.78 1.94 9.38 1.87 10 1.87C10.61 1.87 11.21 1.94 11.79 2.07C12.26 2.17 12.71 2.32 13.16 2.51C13.61 2.7 14.04 2.93 14.44 3.19C14.91 3.5 15.34 3.85 15.74 4.25C16.14 4.65 16.49 5.08 16.8 5.55C17.06 5.95 17.29 6.38 17.48 6.83C17.67 7.28 17.82 7.73 17.92 8.2C18.05 8.78 18.12 9.38 18.12 10C18.12 10.61 18.05 11.21 17.92 11.79C17.82 12.26 17.67 12.71 17.48 13.16C17.29 13.61 17.06 14.04 16.8 14.44C16.49 14.91 16.14 15.34 15.74 15.74C15.34 16.14 14.91 16.49 14.44 16.8C14.04 17.06 13.61 17.29 13.16 17.48C12.71 17.67 12.26 17.82 11.79 17.92C11.21 18.05 10.61 18.12 10 18.12C9.38 18.12 8.78 18.05 8.2 17.92C7.73 17.82 7.28 17.67 6.83 17.48C6.38 17.29 5.95 17.06 5.55 16.8C5.08 16.49 4.65 16.14 4.25 15.74C3.85 15.34 3.5 14.91 3.19 14.44C2.93 14.04 2.7 13.61 2.51 13.16C2.32 12.71 2.17 12.26 2.07 11.79Z"
        fill="currentColor" fill-opacity="1.000000" fill-rule="evenodd" />
    <path id="合并"
        d="M13.2812 13.8755C13.1992 13.8755 13.1235 13.8613 13.0537 13.832C12.9834 13.8032 12.9194 13.7598 12.8613 13.7017L10 10.8403L7.13867 13.7017C7.08057 13.7598 7.0166 13.8032 6.94629 13.832C6.87646 13.8613 6.80078 13.8755 6.71875 13.8755C6.63721 13.8755 6.56152 13.8613 6.4917 13.832C6.42139 13.8032 6.35742 13.7598 6.29883 13.7017C6.24072 13.6431 6.19678 13.5786 6.16797 13.5083C6.13916 13.4385 6.125 13.3633 6.125 13.2817C6.125 13.2002 6.13916 13.125 6.16797 13.0552C6.19678 12.9849 6.24072 12.9204 6.29883 12.8618L9.16064 10.0005L6.29883 7.13916C6.24072 7.08105 6.19678 7.0166 6.16797 6.9458C6.13916 6.87646 6.125 6.80078 6.125 6.71973C6.125 6.63818 6.13916 6.5625 6.16797 6.49316L6.16797 6.49316C6.19678 6.42236 6.24072 6.35791 6.29883 6.2998C6.35742 6.24121 6.42188 6.19775 6.49219 6.16846C6.56201 6.14014 6.6377 6.12549 6.71875 6.12549C6.80029 6.12549 6.87598 6.14014 6.94531 6.16846C7.01562 6.19775 7.08008 6.24121 7.13867 6.2998L10 9.16113L12.8613 6.2998C13.0015 6.15967 13.1411 6.08984 13.2812 6.08984C13.4209 6.08984 13.561 6.15967 13.7012 6.2998C13.7593 6.35791 13.8032 6.42236 13.832 6.49316C13.8608 6.5625 13.875 6.63818 13.875 6.71973C13.875 6.80078 13.8608 6.87646 13.832 6.9458L13.832 6.9458C13.8032 7.0166 13.7593 7.08105 13.7012 7.13916L10.8394 10.0005L13.7012 12.8618C13.7593 12.9204 13.8032 12.9849 13.832 13.0552C13.8608 13.125 13.875 13.2002 13.875 13.2817C13.875 13.3633 13.8608 13.4385 13.832 13.5083C13.8032 13.5786 13.7593 13.6431 13.7012 13.7017C13.6426 13.7598 13.5786 13.8032 13.5083 13.832C13.4385 13.8613 13.3628 13.8755 13.2812 13.8755Z"
        clip-rule="evenodd" fill="currentColor" fill-opacity="1.000000" fill-rule="evenodd" />
</svg>