<svg width="1em" height="1em" viewBox="0 0 32 32" fill="currentColor" xmlns="http://www.w3.org/2000/svg" xmlns:xlink="http://www.w3.org/1999/xlink">
	<defs>
		<clipPath id="clip249_28254">
			<rect id="清除" width="32.000000" height="32.000000" fill="white" fill-opacity="0"/>
		</clipPath>
	</defs>
	<g clip-path="url(#clip249_28254)">
		<path id="矢量 93" d="M9.81 9.81C10.06 9.56 10.44 9.56 10.69 9.81L16 15.11L21.3 9.81C21.55 9.56 21.93 9.56 22.18 9.81C22.43 10.06 22.43 10.44 22.18 10.69L16.88 16L22.18 21.3C22.43 21.55 22.43 21.93 22.18 22.18C21.93 22.43 21.55 22.43 21.3 22.18L16 16.88L10.69 22.18C10.44 22.43 10.06 22.43 9.81 22.18C9.56 21.93 9.56 21.55 9.81 21.3L15.11 16L9.81 10.69C9.56 10.44 9.56 10.06 9.81 9.81Z" fill="currentColor" fill-opacity="1.000000" fill-rule="evenodd"/>
	</g>
</svg>
