<svg width="1em" height="1em" viewBox="0 0 20 20" fill="none" xmlns="http://www.w3.org/2000/svg"
    xmlns:xlink="http://www.w3.org/1999/xlink">
    <path id="路径 (边框)"
        d="M0.84 7.95C0.69 8.61 0.62 9.3 0.62 10C0.62 10.69 0.69 11.38 0.84 12.04C0.96 12.59 1.14 13.12 1.36 13.64C1.58 14.17 1.85 14.67 2.16 15.14C2.51 15.67 2.91 16.17 3.37 16.62C3.82 17.08 4.32 17.48 4.85 17.83C5.32 18.14 5.82 18.41 6.35 18.63C6.87 18.85 7.4 19.03 7.95 19.15C8.61 19.3 9.3 19.37 10 19.37C10.69 19.37 11.38 19.3 12.04 19.15C12.59 19.03 13.12 18.85 13.64 18.63C14.17 18.41 14.67 18.14 15.14 17.83C15.67 17.48 16.17 17.08 16.62 16.62C17.08 16.17 17.48 15.67 17.83 15.14C18.14 14.67 18.41 14.17 18.63 13.64C18.85 13.12 19.03 12.59 19.15 12.04C19.3 11.38 19.37 10.69 19.37 10C19.37 9.3 19.3 8.61 19.15 7.95C19.03 7.4 18.85 6.87 18.63 6.35C18.41 5.82 18.14 5.32 17.83 4.85C17.48 4.32 17.08 3.82 16.62 3.37C16.17 2.91 15.67 2.51 15.14 2.16C14.67 1.85 14.17 1.58 13.64 1.36C13.12 1.14 12.59 0.96 12.04 0.84C11.38 0.69 10.69 0.62 10 0.62C8.72 0.62 7.51 0.87 6.35 1.36C5.82 1.58 5.32 1.85 4.85 2.16C4.32 2.51 3.82 2.91 3.37 3.37C2.91 3.82 2.51 4.32 2.16 4.85C1.85 5.32 1.58 5.82 1.36 6.35C1.14 6.87 0.96 7.4 0.84 7.95ZM2.07 11.79C1.94 11.21 1.87 10.61 1.87 10C1.87 9.38 1.94 8.78 2.07 8.2C2.17 7.73 2.32 7.28 2.51 6.83C2.7 6.38 2.93 5.95 3.19 5.55C3.5 5.08 3.85 4.65 4.25 4.25C4.65 3.85 5.08 3.5 5.55 3.19C5.95 2.93 6.38 2.7 6.83 2.51C7.28 2.32 7.73 2.17 8.2 2.07C8.78 1.94 9.38 1.87 10 1.87C10.61 1.87 11.21 1.94 11.79 2.07C12.26 2.17 12.71 2.32 13.16 2.51C13.61 2.7 14.04 2.93 14.44 3.19C14.91 3.5 15.34 3.85 15.74 4.25C16.14 4.65 16.49 5.08 16.8 5.55C17.06 5.95 17.29 6.38 17.48 6.83C17.67 7.28 17.82 7.73 17.92 8.2C18.05 8.78 18.12 9.38 18.12 10C18.12 10.61 18.05 11.21 17.92 11.79C17.82 12.26 17.67 12.71 17.48 13.16C17.07 14.13 16.49 14.99 15.74 15.74C14.99 16.49 14.13 17.07 13.16 17.48C12.71 17.67 12.26 17.82 11.79 17.92C11.21 18.05 10.61 18.12 10 18.12C9.38 18.12 8.78 18.05 8.2 17.92C7.73 17.82 7.28 17.67 6.83 17.48C5.86 17.07 5 16.49 4.25 15.74C3.85 15.34 3.5 14.91 3.19 14.44C2.93 14.04 2.7 13.61 2.51 13.16C2.32 12.71 2.17 12.26 2.07 11.79Z"
        fill="currentColor" fill-opacity="1.000000" fill-rule="evenodd" />
    <path id="合并"
        d="M10 5.5C9.65479 5.5 9.375 5.77979 9.375 6.125L9.375 10.875C9.375 11.2202 9.65479 11.5 10 11.5C10.3452 11.5 10.625 11.2202 10.625 10.875L10.625 6.125C10.625 5.77979 10.3452 5.5 10 5.5ZM9.0625 13.5127C9.0625 14.0303 9.48242 14.4502 10 14.4502C10.5176 14.4502 10.9375 14.0303 10.9375 13.5127C10.9375 12.9951 10.5176 12.5752 10 12.5752C9.48242 12.5752 9.0625 12.9951 9.0625 13.5127Z"
        clip-rule="evenodd" fill="currentColor" fill-opacity="1.000000" fill-rule="evenodd"
        mask="url(#mask_922_195863)" />
</svg>