<svg width="16.000000" height="16.000000" viewBox="0 0 16 16" fill="none" xmlns="http://www.w3.org/2000/svg" xmlns:xlink="http://www.w3.org/1999/xlink">
	<path id="路径" d="M8 1C4.13 1 1 4.13 1 8C1 11.86 4.13 15 8 15C11.86 15 15 11.86 15 8C15 4.13 11.86 1 8 1Z" fill="#C2C2C2" fill-opacity="1.000000" fill-rule="evenodd"/>
	<mask id="mask_971_59183" fill="white">
		<path id="形状结合备份" d="M10.6249 10.9999C10.5289 10.9999 10.433 10.9631 10.3597 10.89L8 8.53027L5.64026 10.89C5.56702 10.9631 5.47107 10.9999 5.37512 10.9999C5.27905 10.9999 5.18311 10.9631 5.10999 10.89C4.96338 10.7434 4.96338 10.5065 5.10999 10.3597L7.46973 8L5.10999 5.64026C4.96338 5.49353 4.96338 5.25659 5.10999 5.10999C5.25659 4.96338 5.49353 4.96338 5.64026 5.10999L8 7.46973L10.3597 5.10999C10.5065 4.96338 10.7434 4.96338 10.89 5.10999C11.0366 5.25659 11.0366 5.49353 10.89 5.64026L8.53027 8L10.89 10.3597C11.0366 10.5065 11.0366 10.7434 10.89 10.89C10.8169 10.9631 10.7209 10.9999 10.6249 10.9999Z" clip-rule="evenodd" fill="" fill-opacity="1.000000" fill-rule="evenodd"/>
	</mask>
	<path id="形状结合备份" d="M10.6249 10.9999C10.5289 10.9999 10.433 10.9631 10.3597 10.89L8 8.53027L5.64026 10.89C5.56702 10.9631 5.47107 10.9999 5.37512 10.9999C5.27905 10.9999 5.18311 10.9631 5.10999 10.89C4.96338 10.7434 4.96338 10.5065 5.10999 10.3597L7.46973 8L5.10999 5.64026C4.96338 5.49353 4.96338 5.25659 5.10999 5.10999C5.25659 4.96338 5.49353 4.96338 5.64026 5.10999L8 7.46973L10.3597 5.10999C10.5065 4.96338 10.7434 4.96338 10.89 5.10999C11.0366 5.25659 11.0366 5.49353 10.89 5.64026L8.53027 8L10.89 10.3597C11.0366 10.5065 11.0366 10.7434 10.89 10.89C10.8169 10.9631 10.7209 10.9999 10.6249 10.9999Z" clip-rule="evenodd" fill="#FFFFFF" fill-opacity="1.000000" fill-rule="evenodd" mask="url(#mask_971_59183)"/>
	<path id="形状结合备份" d="M10.6249 11.0999C10.4938 11.0999 10.3818 11.0535 10.2891 10.9607L7.92932 8.60095L8 8.53027L8.07068 8.60095L5.71094 10.9607C5.61816 11.0535 5.50623 11.0999 5.37512 11.0999C5.24402 11.0999 5.13208 11.0535 5.03931 10.9607C4.94641 10.8679 4.90002 10.756 4.90002 10.6249C4.90002 10.4939 4.94641 10.382 5.03931 10.2891L7.39905 7.92932L7.46973 8L7.39905 8.07068L5.03931 5.71094C4.94641 5.61804 4.90002 5.5061 4.90002 5.37512C4.90002 5.24402 4.94641 5.13208 5.03931 5.03931C5.13208 4.94641 5.24402 4.90002 5.37512 4.90002C5.5061 4.90002 5.61804 4.94641 5.71094 5.03931L8.07068 7.39905L8 7.46973L7.92932 7.39905L10.2891 5.03931C10.382 4.94641 10.4939 4.90002 10.6249 4.90002C10.756 4.90002 10.8679 4.94641 10.9607 5.03931C11.0536 5.13208 11.1 5.24402 11.1 5.37512C11.1 5.5061 11.0536 5.61804 10.9607 5.71094L8.60095 8.07068L8.53027 8L8.60095 7.92932L10.9607 10.2891C11.0536 10.382 11.1 10.4939 11.1 10.6249C11.1 10.756 11.0536 10.8679 10.9607 10.9607C10.8679 11.0535 10.756 11.0999 10.6249 11.0999ZM10.6249 10.8999C10.7008 10.8999 10.7656 10.873 10.8193 10.8193C10.873 10.7655 10.9 10.7007 10.9 10.6249C10.9 10.5491 10.8732 10.4843 10.8193 10.4305L8.38879 8L10.8193 5.56946C10.873 5.51575 10.9 5.45093 10.9 5.37512C10.9 5.29932 10.873 5.2345 10.8193 5.18066C10.7655 5.12683 10.7007 5.09998 10.6249 5.09998C10.5491 5.09998 10.4843 5.12683 10.4305 5.18066L8 7.61121L5.56946 5.18066C5.51575 5.12683 5.45093 5.09998 5.37512 5.09998C5.29932 5.09998 5.2345 5.12683 5.18066 5.18066C5.12683 5.2345 5.09998 5.29932 5.09998 5.37512C5.09998 5.45093 5.12683 5.51575 5.18066 5.56946L7.61121 8L5.18066 10.4305C5.12683 10.4843 5.09998 10.5491 5.09998 10.6249C5.09998 10.7007 5.12683 10.7655 5.18066 10.8193C5.23438 10.873 5.29919 10.8999 5.37512 10.8999C5.45093 10.8999 5.51575 10.873 5.56946 10.8193L8 8.38879L10.4305 10.8193C10.4843 10.873 10.5491 10.8999 10.6249 10.8999Z" fill="#FFFFFF" fill-opacity="1.000000" fill-rule="nonzero"/>
</svg>
