<svg width="1em" height="1em" viewBox="0 0 16 16" fill="none" xmlns="http://www.w3.org/2000/svg"
    xmlns:xlink="http://www.w3.org/1999/xlink">
    <desc>
        Created with Pixso.
    </desc>
    <path id="path-1"
        d="M2.3 7.77C2.32 8.42 2.86 9.02 3.52 9.02C4.2 9.02 4.75 8.48 4.75 7.82C4.75 7.14 4.2 6.6 3.52 6.6C2.86 6.6 2.32 7.13 2.3 7.77ZM6.54 7.82C6.54 8.48 7.08 9.02 7.76 9.02C8.44 9.02 8.98 8.48 8.98 7.82C8.98 7.14 8.44 6.6 7.76 6.6C7.08 6.6 6.54 7.14 6.54 7.82ZM10.78 7.77C10.8 8.42 11.34 9.02 12 9.02C12.68 9.02 13.23 8.48 13.23 7.82C13.23 7.14 12.68 6.6 12 6.6C11.34 6.6 10.8 7.13 10.78 7.77Z"
        fill="currentColor" fill-opacity="1.000000" fill-rule="nonzero" />
</svg>