<svg width="16.000000" height="16.000000" viewBox="0 0 16 16" fill="currentColor" xmlns="http://www.w3.org/2000/svg" xmlns:xlink="http://www.w3.org/1999/xlink">
	<defs>
		<clipPath id="clip657_188672">
			<rect id="调用" width="16.000000" height="16.000000" fill="white" fill-opacity="0"/>
		</clipPath>
		<clipPath id="clip657_188674">
			<rect id="联网搜索" width="16.000000" height="16.000000" fill="white" fill-opacity="0"/>
		</clipPath>
	</defs>
	<g clip-path="url(#clip657_188674)">
		<rect id="调用" width="16.000000" height="16.000000" fill="#FFFFFF" fill-opacity="0"/>
		<g clip-path="url(#clip657_188672)">
			<path id="矢量 47" d="M11.5 2C11.5 1.72 11.28 1.5 11 1.5C10.72 1.5 10.5 1.72 10.5 2L10.5 3L7.5 3C7.12 3 6.76 3.03 6.41 3.11C6.11 3.18 5.83 3.27 5.55 3.39C5.27 3.51 5 3.65 4.75 3.82C4.47 4 4.2 4.22 3.96 4.46C3.72 4.7 3.5 4.97 3.32 5.25C3.15 5.5 3.01 5.77 2.89 6.05C2.77 6.33 2.68 6.61 2.61 6.91C2.53 7.26 2.5 7.62 2.5 8L1 8C0.71 8 0.5 8.22 0.5 8.5C0.5 8.77 0.71 9 1 9L2.59 9C2.6 9.02 2.61 9.05 2.61 9.08C2.68 9.38 2.77 9.66 2.89 9.94C3.01 10.22 3.15 10.49 3.32 10.74C3.5 11.02 3.72 11.29 3.96 11.53C4.2 11.77 4.47 11.99 4.75 12.17C5 12.34 5.27 12.48 5.55 12.6C6.17 12.86 6.82 13 7.5 13L10.5 13L10.5 14C10.5 14.27 10.72 14.5 11 14.5C11.28 14.5 11.5 14.27 11.5 14L11.5 11L14 11C14.28 11 14.5 10.77 14.5 10.5C14.5 10.22 14.28 10 14 10L11.5 10L11.5 6L14 6C14.28 6 14.5 5.77 14.5 5.5C14.5 5.22 14.28 5 14 5L11.5 5L11.5 2ZM10.5 10.5L10.5 4L7.5 4C7.19 4 6.89 4.03 6.6 4.09Q6.26 4.17 5.94 4.31Q5.61 4.45 5.32 4.64L5.32 4.64Q5.31 4.64 5.31 4.65C5.08 4.8 4.86 4.97 4.67 5.17C4.47 5.36 4.3 5.58 4.15 5.81C4.02 6 3.9 6.22 3.81 6.44C3.72 6.66 3.65 6.88 3.59 7.1C3.53 7.39 3.5 7.69 3.5 8C3.5 8.3 3.53 8.6 3.59 8.89C3.65 9.11 3.72 9.33 3.81 9.55C3.9 9.77 4.02 9.99 4.15 10.18C4.3 10.41 4.47 10.63 4.67 10.82C4.86 11.02 5.08 11.19 5.31 11.34Q5.31 11.35 5.32 11.35L5.32 11.35Q5.61 11.54 5.94 11.68Q6.26 11.82 6.6 11.9C6.89 11.96 7.19 12 7.5 12L10.5 12L10.5 10.5Z" fill="currentColor" fill-opacity="1.000000" fill-rule="evenodd"/>
		</g>
	</g>
</svg>
