<svg width="16.000000" height="16.000000" viewBox="0 0 16 16" fill="currentColor" version="1.1" xmlns="http://www.w3.org/2000/svg" xmlns:xlink="http://www.w3.org/1999/xlink">
	<defs>
		<clipPath id="clip596_185312">
			<rect id="svg" width="16.000000" height="16.000000" fill="white" fill-opacity="0"/>
		</clipPath>
	</defs>
	<g clip-path="url(#clip596_185312)">
		<mask id="mask596_185308" mask-type="alpha" maskUnits="userSpaceOnUse" x="0.000000" y="0.000000" width="16.000000" height="16.000000">
			<rect id="创建-create-1" width="16.000000" height="16.000000" fill="#000000" fill-opacity="1.000000"/>
		</mask>
		<g mask="url(#mask596_185308)">
			<path id="_合并" d="M7.5 8.5L7.5 13.5C7.5 13.77 7.72 14 8 14C8.26 14 8.5 13.77 8.5 13.5L8.5 8.5L13.5 8.5C13.77 8.5 14 8.27 14 8C14 7.72 13.77 7.5 13.5 7.5L8.5 7.5L8.5 2.5C8.5 2.22 8.26 2 8 2C7.72 2 7.5 2.22 7.5 2.5L7.5 7.5L2.5 7.5C2.22 7.5 2 7.72 2 8C2 8.27 2.22 8.5 2.5 8.5L7.5 8.5Z" fill="currentColor" fill-opacity="1.000000" fill-rule="evenodd"/>
		</g>
	</g>
</svg>
