<svg width="24.000000" height="25.038086" viewBox="0 0 24 25.0381" fill="none" xmlns="http://www.w3.org/2000/svg" xmlns:xlink="http://www.w3.org/1999/xlink">
	<defs>
		<clipPath id="clip596_185466">
			<rect id="svg" width="24.000000" height="25.037842" fill="white" fill-opacity="0"/>
		</clipPath>
	</defs>
	<g clip-path="url(#clip596_185466)">
		<mask id="mask596_185462" mask-type="alpha" maskUnits="userSpaceOnUse" x="0.000000" y="0.000000" width="24.000000" height="25.038086">
			<rect id="云命令行-cloud-shell" width="24.000002" height="25.037842" fill="#000000" fill-opacity="1.000000"/>
		</mask>
		<g mask="url(#mask596_185462)">
			<path id="形状结合" d="M18.75 3.12C20.82 3.12 22.5 4.86 22.5 7.04L22.5 17.99C22.5 20.15 20.82 21.9 18.75 21.9L5.25 21.9C3.16 21.9 1.5 20.15 1.5 17.99L1.5 7.04C1.5 4.86 3.16 3.12 5.25 3.12L18.75 3.12ZM18.75 4.69L5.25 4.69C4 4.69 3 5.74 3 7.04L3 17.99C3 19.27 4 20.34 5.25 20.34L18.75 20.34C19.98 20.34 21 19.27 21 17.99L21 7.04C21 5.74 19.98 4.69 18.75 4.69ZM17.25 15.64C17.65 15.64 18 15.99 18 16.43C18 16.85 17.65 17.21 17.25 17.21L12.75 17.21C12.33 17.21 12 16.85 12 16.43C12 15.99 12.33 15.64 12.75 15.64L17.25 15.64ZM6.67 8.2C6.96 7.88 7.44 7.88 7.72 8.2L11.11 11.73C11.53 12.15 11.53 12.86 11.11 13.28L7.72 16.82C7.44 17.13 6.96 17.13 6.67 16.82C6.46 16.52 6.4 15.99 6.67 15.72L9.75 12.51L6.67 9.29C6.37 8.99 6.37 8.49 6.67 8.2Z" fill="#191919" fill-opacity="1.000000" fill-rule="nonzero"/>
		</g>
	</g>
</svg>
