<svg width="1em" height="1em" viewBox="0 0 20 20" fill="none" xmlns="http://www.w3.org/2000/svg"
    xmlns:xlink="http://www.w3.org/1999/xlink">
    <defs>
        <clipPath id="clip666_189861">
            <rect id="svg" width="20.000000" height="20.000002" fill="white" fill-opacity="0" />
        </clipPath>
    </defs>
    <g clip-path="url(#clip666_189861)">
        <mask id="mask666_189863" mask-type="alpha" maskUnits="userSpaceOnUse" x="0.000000" y="0.000000"
            width="20.000000" height="20.000000">
            <rect id="正向权益-selected" width="20.000002" height="20.000002" fill="#000000" fill-opacity="1.000000" />
        </mask>
        <g mask="url(#mask666_189863)">
            <path id="path"
                d="M10 18.75C5.17 18.75 1.25 14.79 1.25 10C1.25 5.18 5.17 1.25 10 1.25C14.81 1.25 18.75 5.17 18.75 10C18.75 14.81 14.8 18.75 10 18.75ZM10 2.6C5.92 2.6 2.59 5.92 2.59 10C2.59 14.06 5.92 17.38 10 17.38C14.06 17.38 17.38 14.06 17.38 10C17.38 5.93 14.06 2.6 10 2.6ZM9.02 13.36C9.19 13.36 9.37 13.29 9.48 13.14L14.51 7.76C14.78 7.5 14.76 7.06 14.47 6.79C14.2 6.54 13.77 6.56 13.52 6.83L8.96 11.72L6.41 9.2C6.13 8.95 5.72 8.95 5.44 9.2C5.19 9.47 5.19 9.88 5.44 10.16L8.51 13.16C8.63 13.29 8.84 13.36 9.02 13.36Z"
                fill="#5CB300" fill-opacity="1.000000" fill-rule="nonzero" />
        </g>
    </g>
</svg>