<svg width="1em" height="1em" viewBox="0 0 32 32" fill="currentColor" xmlns="http://www.w3.org/2000/svg" xmlns:xlink="http://www.w3.org/1999/xlink">
	<defs>
		<clipPath id="clip263_28262">
			<rect id="上传附件1" width="32.000000" height="32.000000" fill="white" fill-opacity="0"/>
		</clipPath>
	</defs>
	<g clip-path="url(#clip263_28262)">
		<path id="path" d="M16.5 11.75C16.5 12.82 17.41 13.75 18.5 13.75C19.57 13.75 20.5 12.82 20.5 11.75C20.5 10.66 19.57 9.75 18.5 9.75C17.41 9.66 16.5 10.57 16.5 11.75ZM19.25 11.75C19.25 12.16 18.91 12.5 18.5 12.5C18.07 12.5 17.75 12.16 17.75 11.75C17.75 11.32 18.07 11 18.5 11C18.91 10.91 19.25 11.25 19.25 11.75ZM18.25 17.25L17.25 18.25C16.66 18.82 15.82 18.82 15.25 18.25L11.57 14.66C11.5 14.57 11.41 14.57 11.32 14.66L8.25 17.75L8.25 19.75C8.25 20.91 9.25 21.82 10.57 21.82L15.75 21.82C16.07 21.82 16.41 22.07 16.41 22.5C16.41 22.82 16.16 23.16 15.75 23.16L10.57 23.16C8.57 23.16 7 21.66 7 19.82L7 10.32C7 8.5 8.57 7 10.57 7L20.91 7C22.91 7 24.5 8.5 24.5 10.32L24.5 15.16C24.5 15.5 24.25 15.82 23.82 15.82C23.5 15.82 23.16 15.57 23.16 15.16L23.16 10.32C23.16 9.16 22.16 8.25 20.82 8.25L10.57 8.25C9.32 8.32 8.32 9.25 8.32 10.32L8.32 16L10.57 13.82C11.16 13.25 12 13.25 12.57 13.82L16.25 17.41C16.32 17.5 16.41 17.5 16.5 17.41L17.5 16.41C17.75 16.16 18.16 16.16 18.41 16.41C18.66 16.66 18.5 17 18.25 17.25ZM25 21C25 21.32 24.75 21.66 24.32 21.66L22.25 21.66L22.25 23.75C22.25 24.07 22 24.41 21.57 24.41C21.25 24.41 20.91 24.16 20.91 23.75L20.91 21.66L18.82 21.66C18.5 21.66 18.16 21.41 18.16 21C18.16 20.57 18.41 20.32 18.82 20.32L21 20.32L21 18.25C21 17.91 21.25 17.57 21.66 17.57C22 17.57 22.32 17.82 22.32 18.25L22.32 20.32L24.32 20.32C24.66 20.32 25 20.57 25 21Z" fill="currentColor" fill-opacity="1.000000" fill-rule="nonzero"/>
	</g>
</svg>
