<svg width="1em" height="1em" viewBox="0 0 20 20" fill="none" xmlns="http://www.w3.org/2000/svg" xmlns:xlink="http://www.w3.org/1999/xlink">
	<defs>
		<clipPath id="clip141_56332">
			<rect width="20.000000" height="20.000000" fill="white" fill-opacity="0"/>
		</clipPath>
	</defs>
	<g clip-path="url(#clip141_56332)">
		<path d="M10.5 5.75C10.5 6.83 11.41 7.75 12.5 7.75C13.58 7.75 14.5 6.83 14.5 5.75C14.5 4.66 13.58 3.75 12.5 3.75C11.41 3.66 10.5 4.58 10.5 5.75ZM13.25 5.75C13.25 6.16 12.91 6.5 12.5 6.5C12.08 6.5 11.75 6.16 11.75 5.75C11.75 5.33 12.08 5 12.5 5C12.91 4.91 13.25 5.25 13.25 5.75ZM12.25 11.25L11.25 12.25C10.66 12.83 9.83 12.83 9.25 12.25L5.58 8.66C5.5 8.58 5.41 8.58 5.33 8.66L2.25 11.75L2.25 13.75C2.25 14.91 3.25 15.83 4.58 15.83L9.75 15.83C10.08 15.83 10.41 16.08 10.41 16.5C10.41 16.83 10.16 17.16 9.75 17.16L4.58 17.16C2.58 17.16 1 15.66 1 13.83L1 4.33C1 2.5 2.58 1 4.58 1L14.91 1C16.91 1 18.5 2.5 18.5 4.33L18.5 9.16C18.5 9.5 18.25 9.83 17.83 9.83C17.5 9.83 17.16 9.58 17.16 9.16L17.16 4.33C17.16 3.16 16.16 2.25 14.83 2.25L4.58 2.25C3.33 2.33 2.33 3.25 2.33 4.33L2.33 10L4.58 7.83C5.16 7.25 6 7.25 6.58 7.83L10.25 11.41C10.33 11.5 10.41 11.5 10.5 11.41L11.5 10.41C11.75 10.16 12.16 10.16 12.41 10.41C12.66 10.66 12.5 11 12.25 11.25ZM19 15C19 15.33 18.75 15.66 18.33 15.66L16.25 15.66L16.25 17.75C16.25 18.08 16 18.41 15.58 18.41C15.25 18.41 14.91 18.16 14.91 17.75L14.91 15.66L12.83 15.66C12.5 15.66 12.16 15.41 12.16 15C12.16 14.58 12.41 14.33 12.83 14.33L15 14.33L15 12.25C15 11.91 15.25 11.58 15.66 11.58C16 11.58 16.33 11.83 16.33 12.25L16.33 14.33L18.33 14.33C18.66 14.33 19 14.58 19 15Z" fill="currentColor" fill-opacity="1.000000" fill-rule="nonzero"/>
	</g>
</svg>
